#!OML:ASF H:\GeneralSubjects\Female5\Project 1\Capture day 1\Session 1\Female5.ASF
:FULLY-SPECIFIED
:DEGREES
274
root -7.29913 16.3846 4.86266 -17.7211 79.3404 -27.7978
lowerback 9.47429 0.627644 4.69917
upperback -9.47414 2.20953 2.21876
thorax -15.9176 0.762858 -0.664036
lowerneck -10.6626 -2.98088 1.19063
upperneck 46.5337 -1.43301 -1.8163
head 19.9398 0.343589 -1.06719
rclavicle -4.12478e-014 5.1684e-015
rhumerus -50.2836 18.8081 -82.5128
rradius 60.5554
rwrist -14.6428
rhand -26.1478 -18.569
rfingers 7.12502
rthumb 0.403001 -48.5484
lclavicle -4.12478e-014 5.1684e-015
lhumerus -41.7639 -1.90926 74.6349
lradius 35.3508
lwrist -11.6799
lhand -31.5136 29.7148
lfingers 7.12502
lthumb -4.77909 59.6409
rfemur -9.36694 4.1911 34.9947
rtibia 19.9181
rfoot -8.39411 -11.2192
rtoes -31.1387
lfemur -11.8649 -18.8678 -22.4352
ltibia 4.71158
lfoot -20.1322 7.62365
ltoes -27.1098
275
root -7.23859 16.3336 4.86012 -16.0494 79.1639 -26.0669
lowerback 9.5865 0.644679 4.11543
upperback -9.46826 2.13033 2.1848
thorax -15.9971 0.786234 -0.360033
lowerneck -10.8071 -2.91554 1.36178
upperneck 46.1694 -1.46556 -1.83197
head 19.7207 0.328624 -1.11677
rclavicle -4.32357e-015 2.3059e-014
rhumerus -49.9857 18.4062 -82.1181
rradius 60.8428
rwrist -14.9856
rhand -26.1558 -18.4701
rfingers 7.12502
rthumb 0.395222 -48.4495
lclavicle -4.32357e-015 2.3059e-014
lhumerus -41.9712 -1.5011 74.5183
lradius 35.892
lwrist -10.7838
lhand -32.167 28.7284
lfingers 7.12502
lthumb -5.40998 58.6393
rfemur -10.7981 4.07945 34.5018
rtibia 22.8359
rfoot -9.24901 -10.4869
rtoes -36.7044
lfemur -11.568 -18.7931 -22.9415
ltibia 4.90502
lfoot -20.6497 6.72841
ltoes -26.4792
276
root -7.19021 16.299 4.86246 -13.9375 79.1091 -24.0132
lowerback 9.64141 0.649232 3.44687
upperback -9.45942 2.01052 2.12528
thorax -16.037 0.799665 -0.0264905
lowerneck -11.0162 -2.8514 1.4621
upperneck 45.746 -1.49959 -1.82362
head 19.4861 0.29871 -1.14247
rclavicle 2.26118e-014 -7.95139e-015
rhumerus -49.6965 18.0964 -81.8477
rradius 60.8509
rwrist -15.3599
rhand -26.1991 -18.4247
rfingers 7.12502
rthumb 0.353459 -48.4041
lclavicle 2.26118e-014 -7.95139e-015
lhumerus -41.9901 -1.15565 74.4632
lradius 36.2074
lwrist -9.93405
lhand -32.0551 28.8072
lfingers 7.12502
lthumb -5.30195 58.7209
rfemur -12.4089 4.42118 33.9068
rtibia 25.4093
rfoot -10.2863 -9.84354
rtoes -41.1436
lfemur -11.6127 -18.5159 -23.4585
ltibia 5.31705
lfoot -20.7898 5.84466
ltoes -26.1253
277
root -7.15132 16.2797 4.86862 -11.8412 79.1313 -22.0672
lowerback 9.64992 0.638651 2.83354
upperback -9.44118 1.87534 2.05893
thorax -16.0329 0.800143 0.27324
lowerneck -11.277 -2.78357 1.51769
upperneck 45.2626 -1.52265 -1.81458
head 19.2325 0.261209 -1.1581
rclavicle -7.85199e-015 2.8625e-014
rhumerus -49.4071 17.8986 -81.7195
rradius 60.5042
rwrist -15.6976
rhand -26.3256 -18.4301
rfingers 7.12502
rthumb 0.231296 -48.4098
lclavicle -7.85199e-015 2.8625e-014
lhumerus -41.7933 -0.862489 74.469
lradius 36.2516
lwrist -9.20337
lhand -31.6725 29.3977
lfingers 7.12502
lthumb -4.93248 59.3202
rfemur -13.9687 5.20925 33.3049
rtibia 27.2135
rfoot -11.5357 -9.23007
rtoes -44.1507
lfemur -11.846 -18.2227 -23.8904
ltibia 5.79869
lfoot -20.7492 5.0272
ltoes -25.9962
278
root -7.11828 16.2744 4.87646 -10.1455 79.1876 -20.5844
lowerback 9.619 0.615447 2.4023
upperback -9.41398 1.75456 2.00222
thorax -15.9871 0.787958 0.479266
lowerneck -11.5755 -2.70959 1.53282
upperneck 44.7381 -1.52198 -1.81611
head 18.97 0.222615 -1.16726
rclavicle 2.87989e-014 2.28602e-014
rhumerus -49.1468 17.8336 -81.7414
rradius 59.7777
rwrist -15.932
rhand -26.5377 -18.461
rfingers 7.12502
rthumb 0.0264586 -48.4407
lclavicle 2.87989e-014 2.28602e-014
lhumerus -41.4002 -0.608861 74.5372
lradius 36.0287
lwrist -8.69753
lhand -31.3554 30.0428
lfingers 7.12502
lthumb -4.6263 59.9723
rfemur -15.2723 6.41078 32.7593
rtibia 27.9221
rfoot -12.9966 -8.56705
rtoes -45.3572
lfemur -12.1248 -18.0784 -24.1809
ltibia 6.18708
lfoot -20.7155 4.36255
ltoes -26.0579
279
root -7.08683 16.2814 4.88346 -8.98214 79.2534 -19.6713
lowerback 9.542 0.585398 2.21165
upperback -9.38698 1.66808 1.96056
thorax -15.9061 0.766137 0.559928
lowerneck -11.8834 -2.62914 1.52768
upperneck 44.1911 -1.48732 -1.8529
head 18.7031 0.189444 -1.18291
rclavicle 2.16675e-014 2.70347e-014
rhumerus -48.9826 17.9175 -81.91
rradius 58.7138
rwrist -16.0236
rhand -26.7939 -18.4644
rfingers 7.12502
rthumb -0.221001 -48.444
lclavicle 2.16675e-014 2.70347e-014
lhumerus -40.8725 -0.416495 74.6836
lradius 35.5946
lwrist -8.48626
lhand -30.9851 30.787
lfingers 7.12502
lthumb -4.26872 60.7239
rfemur -16.183 7.95514 32.2672
rtibia 27.3878
rfoot -14.6386 -7.79013
rtoes -44.4312
lfemur -12.324 -18.2334 -24.3366
ltibia 6.35757
lfoot -20.865 3.92939
ltoes -26.2189
280
root -7.05352 16.2984 4.88795 -8.37053 79.3153 -19.3305
lowerback 9.40969 0.553452 2.27357
upperback -9.3689 1.62515 1.93703
thorax -15.7952 0.738283 0.509797
lowerneck -12.186 -2.54517 1.51418
upperneck 43.6429 -1.41435 -1.94643
head 18.4412 0.164335 -1.21604
rclavicle 1.56543e-015 3.1408e-014
rhumerus -48.9625 18.1613 -82.2073
rradius 57.3929
rwrist -15.9569
rhand -27.0255 -18.4114
rfingers 7.12502
rthumb -0.444685 -48.3906
lclavicle 1.56543e-015 3.1408e-014
lhumerus -40.2912 -0.332456 74.932
lradius 35.0629
lwrist -8.53075
lhand -30.7024 31.2827
lfingers 7.12502
lthumb -3.99578 61.2249
rfemur -16.655 9.76168 31.8119
rtibia 25.6817
rfoot -16.156 -7.52787
rtoes -43.1089
lfemur -12.3602 -18.7605 -24.3777
ltibia 6.21607
lfoot -21.2909 3.79408
ltoes -26.3903
281
root -7.01661 16.3222 4.89001 -8.25289 79.3677 -19.491
lowerback 9.22256 0.523467 2.55469
upperback -9.36636 1.62506 1.935
thorax -15.6646 0.708643 0.351769
lowerneck -12.4875 -2.46584 1.46523
upperneck 43.128 -1.30971 -2.08381
head 18.207 0.143765 -1.25652
rclavicle -1.4238e-014 -6.36111e-015
rhumerus -49.1003 18.5537 -82.6022
rradius 55.8939
rwrist -15.7125
rhand -27.1543 -18.2968
rfingers 7.12502
rthumb -0.569122 -48.2758
lclavicle -1.4238e-014 -6.36111e-015
lhumerus -39.7289 -0.38564 75.2961
lradius 34.5657
lwrist -8.72729
lhand -30.7277 31.2341
lfingers 7.12502
lthumb -4.02015 61.1759
rfemur -16.7291 11.752 31.3804
rtibia 23.0762
rfoot -17.468 -8.01324
rtoes -41.387
lfemur -12.2053 -19.6512 -24.3216
ltibia 5.73915
lfoot -21.9969 3.97052
ltoes -26.5501
282
root -6.97537 16.3493 4.89125 -8.36434 79.4205 -19.8708
lowerback 8.98686 0.498785 2.95238
upperback -9.38826 1.65375 1.95044
thorax -15.5313 0.682185 0.142381
lowerneck -12.7719 -2.39953 1.36819
upperneck 42.6735 -1.18344 -2.25395
head 18.0111 0.124911 -1.29836
rclavicle -1.32689e-014 1.70955e-014
rhumerus -49.3882 19.0603 -83.0635
rradius 54.2628
rwrist -15.2819
rhand -27.137 -18.1505
rfingers 7.12502
rthumb -0.552367 -48.1296
lclavicle -1.32689e-014 1.70955e-014
lhumerus -39.2523 -0.591437 75.7773
lradius 34.2105
lwrist -8.94776
lhand -30.426 31.4268
lfingers 7.12502
lthumb -3.72883 61.3739
rfemur -16.4821 13.8457 30.9346
rtibia 19.9418
rfoot -18.6335 -9.19229
rtoes -39.2493
lfemur -11.8512 -20.8477 -24.2271
ltibia 4.94517
lfoot -22.939 4.42726
ltoes -26.7276
283
root -6.92954 16.3756 4.89385 -8.33846 79.4965 -20.0899
lowerback 8.70662 0.48031 3.33907
upperback -9.44266 1.68911 1.97075
thorax -15.41 0.661707 -0.0558448
lowerneck -13.0308 -2.35882 1.20212
upperneck 42.2966 -1.0547 -2.43745
head 17.8598 0.100137 -1.33231
rclavicle -8.02593e-015 4.45278e-014
rhumerus -49.7955 19.6261 -83.5672
rradius 52.5115
rwrist -14.6803
rhand -26.9939 -18.0101
rfingers 7.12502
rthumb -0.414206 -47.9894
lclavicle -8.02593e-015 4.45278e-014
lhumerus -38.9022 -0.954308 76.3614
lradius 34.0566
lwrist -9.07144
lhand -29.9311 31.6305
lfingers 7.12502
lthumb -3.25096 61.5854
rfemur -15.9854 15.9526 30.4303
rtibia 16.6154
rfoot -19.5226 -10.9569
rtoes -36.7616
lfemur -11.2904 -22.272 -24.1804
ltibia 3.8572
lfoot -24.058 5.10855
ltoes -26.9491
284
root -6.87879 16.3977 4.8999 -7.88295 79.6191 -19.8447
lowerback 8.38024 0.466435 3.61489
upperback -9.52997 1.71028 1.98098
thorax -15.3013 0.646988 -0.199273
lowerneck -13.2683 -2.34791 0.957382
upperneck 42.0027 -0.937473 -2.60901
head 17.7555 0.0656042 -1.34791
rclavicle 4.67144e-015 -3.57812e-015
rhumerus -50.281 20.1795 -84.0944
rradius 50.6389
rwrist -13.9502
rhand -26.788 -17.896
rfingers 7.12502
rthumb -0.215314 -47.8756
lclavicle 4.67144e-015 -3.57812e-015
lhumerus -38.6789 -1.4404 77.0098
lradius 34.1063
lwrist -9.04782
lhand -28.6352 32.6264
lfingers 7.12502
lthumb -1.9994 62.5968
rfemur -15.2797 17.959 29.8552
rtibia 13.3484
rfoot -19.8778 -13.1804
rtoes -34.1947
lfemur -10.5053 -23.8653 -24.262
ltibia 2.48666
lfoot -25.3045 5.9697
ltoes -27.2078
285
root -6.82296 16.4127 4.9111 -6.79724 79.8019 -18.9199
lowerback 8.00185 0.455213 3.71546
upperback -9.64272 1.7025 1.96873
thorax -15.1931 0.636972 -0.262872
lowerneck -13.4725 -2.36024 0.665187
upperneck 41.7713 -0.83091 -2.77464
head 17.681 0.0248013 -1.35347
rclavicle -1.36664e-014 4.17448e-014
rhumerus -50.8023 20.6608 -84.6294
rradius 48.6432
rwrist -13.1675
rhand -26.5957 -17.8285
rfingers 7.12502
rthumb -0.0295631 -47.8083
lclavicle -1.36664e-014 4.17448e-014
lhumerus -38.5579 -1.98901 77.6734
lradius 34.3168
lwrist -8.91012
lhand -27.0575 33.8633
lfingers 7.12502
lthumb -0.475626 63.8425
rfemur -14.3735 19.7591 29.2302
rtibia 10.2927
rfoot -19.6457 -15.5836
rtoes -31.3682
lfemur -9.46309 -25.6799 -24.5322
ltibia 0.860575
lfoot -26.7472 7.00056
ltoes -27.4839
286
root -6.76268 16.4185 4.92823 -4.9806 80.0454 -17.2082
lowerback 7.57465 0.4444 3.61604
upperback -9.77462 1.65958 1.92776
thorax -15.0797 0.630775 -0.239059
lowerneck -13.6365 -2.39138 0.345121
upperneck 41.5851 -0.734954 -2.93812
head 17.6235 -0.0205702 -1.35421
rclavicle 1.23743e-014 1.35174e-014
rhumerus -51.3269 21.0248 -85.1514
rradius 46.5422
rwrist -12.4123
rhand -26.4575 -17.8427
rfingers 7.12502
rthumb 0.103899 -47.8224
lclavicle 1.23743e-014 1.35174e-014
lhumerus -38.5004 -2.53458 78.3109
lradius 34.6158
lwrist -8.74475
lhand -25.9531 34.5835
lfingers 7.12502
lthumb 0.591043 64.5624
rfemur -13.2644 21.3268 28.5907
rtibia 7.47862
rfoot -18.9541 -17.9116
rtoes -27.9804
lfemur -8.16675 -27.8222 -25.0246
ltibia -0.984843
lfoot -28.498 8.22739
ltoes -27.7276
287
root -6.69928 16.414 4.95112 -2.36445 80.3382 -14.6323
lowerback 7.12303 0.431026 3.32215
upperback -9.91805 1.58085 1.85258
thorax -14.967 0.626598 -0.137709
lowerneck -13.7553 -2.43551 0.0183567
upperneck 41.4275 -0.644936 -3.11097
head 17.5712 -0.0676609 -1.35826
rclavicle -5.06901e-015 3.1408e-014
rhumerus -51.8308 21.2234 -85.6249
rradius 44.3905
rwrist -11.7381
rhand -26.3418 -17.9913
rfingers 7.12502
rthumb 0.21564 -47.9709
lclavicle -5.06901e-015 3.1408e-014
lhumerus -38.4605 -3.01082 78.8869
lradius 34.928
lwrist -8.64197
lhand -25.2185 34.9081
lfingers 7.12502
lthumb 1.30052 64.8839
rfemur -11.9374 22.7626 27.96
rtibia 4.84906
rfoot -18.1053 -20.1281
rtoes -23.846
lfemur -6.64142 -30.4943 -25.7643
ltibia -2.92225
lfoot -30.8179 9.50714
ltoes -27.5745
